<svg width="32" height="32" viewBox="0 0 32 32" fill="none" xmlns="http://www.w3.org/2000/svg">
<path fill-rule="evenodd" clip-rule="evenodd" d="M16 32C24.8366 32 32 24.8366 32 16C32 7.16344 24.8366 0 16 0C7.16344 0 0 7.16344 0 16C0 24.8366 7.16344 32 16 32Z" fill="white"/>
<mask id="mask0_2981_19337" style="mask-type:luminance" maskUnits="userSpaceOnUse" x="0" y="0" width="32" height="32">
<path fill-rule="evenodd" clip-rule="evenodd" d="M16 32C24.8366 32 32 24.8366 32 16C32 7.16344 24.8366 0 16 0C7.16344 0 0 7.16344 0 16C0 24.8366 7.16344 32 16 32Z" fill="white"/>
</mask>
<g mask="url(#mask0_2981_19337)">
<path fill-rule="evenodd" clip-rule="evenodd" d="M25.7489 27.063C25.9806 26.8593 26.2065 26.6468 26.4269 26.4263C29.2119 23.6412 30.7455 19.9382 30.7455 15.9995C30.7455 12.0607 29.2119 8.35763 26.4269 5.57258C23.6418 2.78771 19.9388 1.25411 16.0001 1.25411C12.0613 1.25411 8.35824 2.78771 5.57318 5.57258C2.78813 8.35763 1.25452 12.0607 1.25452 15.9995C1.25452 19.9382 2.78813 23.6412 5.57318 26.4263C5.79314 26.6462 6.01901 26.8587 6.25061 27.063C6.27979 26.1077 6.36621 23.9554 8.40173 23.2564C8.40358 23.2558 8.40542 23.2552 8.40727 23.2546C8.41973 23.2506 8.43245 23.2465 8.44923 23.2427C10.6011 22.6959 12.3732 21.4607 12.3921 21.4468C12.6819 21.2425 13.0809 21.3136 13.2849 21.6036C13.4892 21.893 13.418 22.2923 13.1284 22.4964C13.1246 22.4989 13.1166 22.5042 13.1047 22.5122C12.8663 22.6726 11.0441 23.8983 8.79109 24.4773C7.68444 24.8717 7.56063 26.0544 7.52762 27.1376C7.52762 27.1596 7.52631 27.1803 7.52504 27.2004C7.52384 27.2195 7.52266 27.238 7.52266 27.2567C7.51732 27.4909 7.52533 27.7956 7.54594 28.0858C9.25066 29.2836 11.1786 30.098 13.2231 30.4851C14.0705 30.6037 14.9995 30.6768 16.0022 30.6768C16.9896 30.6768 17.9042 30.607 18.7394 30.4927C20.7972 30.1083 22.7385 29.2912 24.4531 28.0863C24.4724 27.7973 24.4797 27.4949 24.4774 27.2614C24.4724 27.2235 24.4724 27.1853 24.4724 27.1422C24.4394 26.0594 24.3158 24.8766 23.2091 24.4823C20.8432 23.8743 18.9525 22.5584 18.8716 22.5012C18.5822 22.297 18.5108 21.8979 18.7146 21.608C18.9191 21.3182 19.3182 21.247 19.6082 21.4513C19.6268 21.4657 21.4083 22.7009 23.5508 23.2471C23.5651 23.2518 23.584 23.2564 23.5983 23.2614C25.6302 23.9541 25.7199 26.1002 25.7489 27.063ZM27.3139 4.68589C28.7832 6.15558 29.9362 7.8666 30.7423 9.77164C31.5771 11.7448 32 13.8402 32 15.9999C32 18.1594 31.5771 20.2548 30.7423 22.2282C29.9362 24.1332 28.7832 25.8442 27.3139 27.3137C26.7964 27.8313 26.2494 28.3094 25.6742 28.7466C24.6155 29.5518 23.4626 30.2199 22.2282 30.7423C20.9714 31.2735 19.6656 31.6383 18.3244 31.8329C17.56 31.9439 16.784 32 16.0001 32C15.2029 32 14.4148 31.942 13.6384 31.8275C12.3104 31.6316 11.017 31.2688 9.77164 30.7423C8.54002 30.2213 7.38911 29.5549 6.33262 28.7518C5.75516 28.313 5.20536 27.8332 4.68608 27.3137C3.21696 25.8442 2.06375 24.1332 1.25756 22.2282C0.422938 20.2548 0 18.1594 0 15.9999C0 13.8402 0.422938 11.7448 1.25756 9.77164C2.06375 7.8666 3.21696 6.15558 4.68608 4.68589C6.15558 3.21677 7.8668 2.06356 9.77164 1.25756C11.745 0.422747 13.8404 0 16.0001 0C18.1596 0 20.255 0.422747 22.2282 1.25756C24.1334 2.06356 25.8442 3.21677 27.3139 4.68589ZM16.3124 19.9384C17.3606 19.9288 18.1575 19.5921 18.7552 18.9096C20.2632 17.1885 19.9314 13.9193 19.9262 13.8859C19.9218 13.8765 19.9218 13.862 19.9218 13.8473C19.7748 10.5878 17.5975 10.059 16.3172 10.03H16.2599C15.2264 10.03 12.812 10.4005 12.6554 13.8473C12.6554 13.8515 12.6545 13.8567 12.6535 13.8625C12.6522 13.8697 12.6508 13.8778 12.6508 13.8859C12.6461 13.9145 12.3234 17.198 13.827 18.9096C14.4201 19.5921 15.2212 19.9288 16.265 19.9384H16.3124ZM16.3456 8.72738C17.3037 8.7463 18.1621 8.9772 18.8975 9.40521C19.884 9.97723 21.0792 11.2029 21.1977 13.7656C21.2308 14.1071 21.5346 17.6835 19.7086 19.7702C18.8783 20.7168 17.7542 21.2125 16.3647 21.2365H16.2125C14.8232 21.2125 13.699 20.7168 12.8737 19.7702C11.0477 17.6835 11.3509 14.1071 11.3846 13.7656C11.5031 11.1838 12.7172 9.95793 13.7133 9.38609C14.7045 8.81387 15.7384 8.72738 16.2651 8.72738H16.3456Z" fill="#A2ABEA"/>
</g>
</svg>
