<svg xmlns="http://www.w3.org/2000/svg" xmlns:xlink="http://www.w3.org/1999/xlink" width="730.429" height="746" viewBox="0 0 730.429 746"><defs><style>.a{fill:#fff;stroke:#707070;}.b{clip-path:url(#a);}.c{opacity:0.6;}.d{fill:#1f71b8;}.d,.e{opacity:0.2;}.e{fill:#5caa81;}</style><clipPath id="a"><rect class="a" width="730.429" height="746" transform="translate(655 194)"/></clipPath></defs><g class="b" transform="translate(-655 -194)"><g class="c" transform="translate(655.799 194)"><g transform="translate(354.389 0)"><path class="d" d="M186.217,2.693C200.047-.156,214.4-.07,228.569.04c47.342,0,94.758.694,142.048.694h23.306a55.851,55.851,0,0,1,0,111.7H236.5a55.77,55.77,0,0,0-50.682,32.387,50.574,50.574,0,0,0-2.584,6.69,55.887,55.887,0,0,0,2.584,40.191A55.73,55.73,0,0,0,236.5,224.14H398.786v.253a55.806,55.806,0,0,1,0,111.195v.253q-86.7,0-173.4-.07c-23.282-.047-42.349-1.142-63.748-12.323a145.521,145.521,0,0,1-50.651-44.618C73.6,226.281,64.885,154.925,88.3,95.1c9.011-23.023,23.357-42.325,40.953-59.583q3.237-3.174,6.635-6.181C148.805,17.953,163.809,8.61,180.411,4.074Q183.3,3.293,186.217,2.693Z" transform="translate(-75.331 0)"/><path class="e" d="M416.666,189.629c2.849,13.83,2.762,28.184,2.652,42.352,0,47.342-.694,94.758-.694,142.048v23.306a55.85,55.85,0,1,1-111.7,0V239.916a55.77,55.77,0,0,0-32.387-50.682,50.569,50.569,0,0,0-6.69-2.584,55.887,55.887,0,0,0-40.191,2.584,55.728,55.728,0,0,0-32.435,50.682V402.2h-.253a55.806,55.806,0,0,1-111.195,0h-.253q0-86.7.07-173.4c.047-23.282,1.142-42.349,12.323-63.748A145.521,145.521,0,0,1,140.53,114.4c52.549-37.392,123.9-46.105,183.732-22.686,23.023,9.011,42.325,23.357,59.583,40.953q3.174,3.237,6.181,6.635c11.381,12.911,20.723,27.916,25.259,44.518Q416.064,186.709,416.666,189.629Z" transform="translate(-44.916 292.813)"/></g><path class="e" d="M263.781,379.912c-13.83,2.849-28.184,2.762-42.352,2.652-47.342,0-94.758-.694-142.048-.694H56.075a55.85,55.85,0,1,1,0-111.7H213.493a55.77,55.77,0,0,0,50.682-32.387,50.571,50.571,0,0,0,2.584-6.69,55.886,55.886,0,0,0-2.584-40.191,55.728,55.728,0,0,0-50.682-32.435H51.21v-.253a55.806,55.806,0,0,1,0-111.195v-.253q86.7,0,173.4.07c23.282.047,42.349,1.142,63.748,12.323a145.521,145.521,0,0,1,50.65,44.618c37.392,52.547,46.105,123.9,22.686,183.732-9.011,23.023-23.357,42.325-40.953,59.583q-3.237,3.174-6.635,6.181c-12.912,11.381-27.916,20.723-44.518,25.259Q266.7,379.311,263.781,379.912Z" transform="translate(-0.225 173.864)"/></g></g></svg>