<svg xmlns="http://www.w3.org/2000/svg" xmlns:xlink="http://www.w3.org/1999/xlink" width="170" height="26" viewBox="0 0 170 26"><defs><style>.a{fill:#fff;stroke:#707070;}.b{clip-path:url(#a);}.c{fill:#1d70b7;}.d{fill:#61ab80;}</style><clipPath id="a"><rect class="a" width="170" height="26" transform="translate(55 32)"/></clipPath></defs><g class="b" transform="translate(-55 -32)"><g transform="translate(-68.814 -355.44)"><path class="c" d="M128.712,401.662v9.271h-4.243v-8.619a2.159,2.159,0,0,1,.1-.652Z"/><ellipse class="c" cx="2.121" cy="2.182" rx="2.121" ry="2.182" transform="translate(124.468 408.751)"/><path class="c" d="M137.846,400.847a6.509,6.509,0,0,1-1.514,2.269l-.245.235a4.214,4.214,0,0,1-1.647.962c-.072.017-.143.037-.215.051a7.272,7.272,0,0,1-1.569.1c-1.316,0-2.63-.017-3.943-.024-.437,0-.877,0-1.313,0h-.862a2.1,2.1,0,0,1-2.067-2.125,2.159,2.159,0,0,1,.1-.652,2.073,2.073,0,0,1,1.968-1.477h5.826a2.064,2.064,0,0,0,1.876-1.232,2.206,2.206,0,0,0,.192-.894,2.115,2.115,0,0,0-2.068-2.124l-6.006-.01a2.034,2.034,0,0,1-1.341-.675,2.163,2.163,0,0,1-.546-1.443,2.1,2.1,0,0,1,1.886-2.114c1.712,0,3.421-.01,5.134-.01.43,0,.856,0,1.286,0a4.545,4.545,0,0,1,2.356.467,5.435,5.435,0,0,1,1.876,1.7A7.723,7.723,0,0,1,137.846,400.847Z"/><path class="c" d="M139.177,409.417l-2.956,3.046-8.367-8.589,2.955-3.046Z"/><ellipse class="c" cx="2.092" cy="2.152" rx="2.092" ry="2.152" transform="translate(135.656 408.838)"/><path class="d" d="M145.248,387.44l-.1.108a.258.258,0,0,0-.071.056q-.645.716-1.3,1.419a.218.218,0,0,0-.031.038l-.111.119c.188.194.367.4.539.61a.1.1,0,0,0,.012.015,9.938,9.938,0,0,1,.4,11.716l-.007.011a9.293,9.293,0,0,1-.965,1.175l1.612,1.742a12.483,12.483,0,0,0,.024-17.011Z"/><path class="d" d="M142.223,390.986s-.005,0-.005-.006c-.017-.017-.035-.034-.052-.053l0,0-.074-.074-.091.1a.785.785,0,0,0-.065.065c-.414.449-.835.895-1.251,1.342a.531.531,0,0,0-.084.106l-.124.134a4.354,4.354,0,0,1,.788.99.015.015,0,0,0,0,.008,4.69,4.69,0,0,1-.151,4.922,4.156,4.156,0,0,1-.665.775l1.616,1.745.076-.074a.2.2,0,0,1,.03-.028.026.026,0,0,1,.009-.009,7.251,7.251,0,0,0,.041-9.938Z"/><path class="c" d="M163.029,412.859q-.307.068-.871.172a6.85,6.85,0,0,1-1.213.1,2.723,2.723,0,0,1-1.828-.479,2.076,2.076,0,0,1-.53-1.6V393.9a1.342,1.342,0,0,1,.342-.991,2.417,2.417,0,0,1,.956-.547,11.719,11.719,0,0,1,2.579-.53,29.587,29.587,0,0,1,3.057-.153q4.508,0,6.763,1.861a6.9,6.9,0,0,1,1.127,8.881,7.2,7.2,0,0,1-3.108,2.442q1.5,1.947,2.886,3.706t2.066,2.75a2.59,2.59,0,0,1-.956,1.383,2.507,2.507,0,0,1-1.5.5,2.439,2.439,0,0,1-1.622-.478,6.207,6.207,0,0,1-1.11-1.3l-3.86-5.772h-3.177v7.206Zm2.733-10.69a5.213,5.213,0,0,0,3.125-.853,2.992,2.992,0,0,0,1.178-2.6q0-3.45-4.611-3.45a12.25,12.25,0,0,0-1.314.069q-.632.068-1.178.136v6.694h2.8Z"/><path class="c" d="M183.1,412.314a2.39,2.39,0,0,1-.632-1.743V394.517a2.182,2.182,0,0,1,2.356-2.355h11.306a3.157,3.157,0,0,1,.308.717,3.37,3.37,0,0,1,.136.991,2.036,2.036,0,0,1-.41,1.366,1.407,1.407,0,0,1-1.127.478h-8.266v4.85H195.1a3.732,3.732,0,0,1,.325.7,2.851,2.851,0,0,1,.153.972q0,1.846-1.572,1.845h-7.241v5.294h9.5a3.513,3.513,0,0,1,.325.734,3.165,3.165,0,0,1,.153,1.008q0,1.845-1.572,1.844H184.82A2.289,2.289,0,0,1,183.1,412.314Z"/><path class="c" d="M210.4,409.787a4.5,4.5,0,0,0,2.9-.769,2.411,2.411,0,0,0,.922-1.93,2.146,2.146,0,0,0-.717-1.691,5.921,5.921,0,0,0-2.187-1.076l-2.186-.683a17.451,17.451,0,0,1-2.356-.922,7.274,7.274,0,0,1-1.81-1.213,4.877,4.877,0,0,1-1.161-1.639,5.566,5.566,0,0,1-.41-2.237,5.268,5.268,0,0,1,2.083-4.389,9.059,9.059,0,0,1,5.7-1.622,14.783,14.783,0,0,1,2.646.222,9.426,9.426,0,0,1,2.1.614,3.819,3.819,0,0,1,1.385.973,1.957,1.957,0,0,1,.494,1.3,2.1,2.1,0,0,1-.325,1.178,2.7,2.7,0,0,1-.8.8,7.964,7.964,0,0,0-2.169-1.008,9.76,9.76,0,0,0-2.956-.427,4.773,4.773,0,0,0-2.7.632,1.987,1.987,0,0,0-.923,1.725,1.608,1.608,0,0,0,.632,1.366,7.023,7.023,0,0,0,2,.923l1.947.614a11.437,11.437,0,0,1,4.61,2.425,5.436,5.436,0,0,1,1.639,4.167,5.941,5.941,0,0,1-.546,2.561,5.6,5.6,0,0,1-1.588,2,7.5,7.5,0,0,1-2.6,1.3,12.421,12.421,0,0,1-3.535.461,14.225,14.225,0,0,1-2.886-.273,9.87,9.87,0,0,1-2.272-.734,4.387,4.387,0,0,1-1.486-1.094,2.1,2.1,0,0,1-.53-1.383,2.06,2.06,0,0,1,.461-1.349,2.919,2.919,0,0,1,1.076-.837,8.986,8.986,0,0,0,2.254,1.383A7.869,7.869,0,0,0,210.4,409.787Z"/><path class="c" d="M225.363,411.937a2.988,2.988,0,0,1-.273-1.3,2.943,2.943,0,0,1,.325-1.333,7.572,7.572,0,0,1,.8-1.263l9.563-12.263H225.84a4.689,4.689,0,0,1-.324-.752,3.147,3.147,0,0,1-.153-1.025,2.1,2.1,0,0,1,.427-1.434,1.541,1.541,0,0,1,1.213-.478h13.082a2.912,2.912,0,0,1,1.094,2.322,3.018,3.018,0,0,1-.291,1.3,6.589,6.589,0,0,1-.769,1.23l-9.6,12.3H240.9a6.018,6.018,0,0,1,.342.752,2.865,2.865,0,0,1,.17,1.025,2.028,2.028,0,0,1-.427,1.417,1.53,1.53,0,0,1-1.178.461H226.08A2.731,2.731,0,0,1,225.363,411.937Z"/><path class="d" d="M267.99,402.511a13.119,13.119,0,0,1-.786,4.714,9.683,9.683,0,0,1-2.168,3.432,8.937,8.937,0,0,1-3.3,2.083,12.553,12.553,0,0,1-8.267,0,8.946,8.946,0,0,1-3.3-2.083,9.666,9.666,0,0,1-2.169-3.432,13.094,13.094,0,0,1-.785-4.714,12.739,12.739,0,0,1,.8-4.7,9.759,9.759,0,0,1,2.2-3.416,9.112,9.112,0,0,1,3.3-2.083,12.25,12.25,0,0,1,8.164,0,9.144,9.144,0,0,1,3.3,2.083,9.785,9.785,0,0,1,2.2,3.416A12.778,12.778,0,0,1,267.99,402.511Zm-4.543,0a8.126,8.126,0,0,0-1.589-5.414,5.768,5.768,0,0,0-8.471-.017,10.129,10.129,0,0,0-.017,10.862,5.805,5.805,0,0,0,8.488,0A8.122,8.122,0,0,0,263.448,402.511Z"/><path class="d" d="M277.826,413.134a2.658,2.658,0,0,1-1.776-.461,2.008,2.008,0,0,1-.512-1.554V392.913a2.453,2.453,0,0,1,1.111-.752,4.956,4.956,0,0,1,3.518.1,3.432,3.432,0,0,1,1.486,1.5l4.919,8.847q.682,1.229,1.314,2.544t1.111,2.408l.137-.033q-.171-2.016-.222-3.911t-.051-3.741v-7.753c.182-.045.461-.1.836-.153a7.678,7.678,0,0,1,1.145-.085,2.734,2.734,0,0,1,1.793.461,1.97,1.97,0,0,1,.529,1.554V412.35a2.475,2.475,0,0,1-1.075.581,5.955,5.955,0,0,1-1.656.2,4.7,4.7,0,0,1-1.862-.358,3.318,3.318,0,0,1-1.486-1.487l-4.919-8.846q-.684-1.2-1.315-2.545t-1.111-2.442l-.2.034q.171,1.879.223,3.86t.051,3.758v7.753c-.184.045-.456.1-.819.172A6.523,6.523,0,0,1,277.826,413.134Z"/></g></g></svg>