<svg width="789" height="214" viewBox="0 0 789 214" fill="none" xmlns="http://www.w3.org/2000/svg">
<path opacity="0.5" d="M55 384.632C55 302.045 106.074 227.081 189.053 172.694C272.019 118.315 386.724 84.6319 513.5 84.6319C640.303 84.6319 793.469 118.329 914.905 172.808C975.622 200.047 1028.33 232.446 1065.83 268.358C1103.34 304.279 1125.5 343.571 1125.5 384.632C1125.5 426.086 1117.1 448.631 1100.27 463.344C1091.81 470.743 1081.13 476.245 1068.07 481.131C1055.18 485.955 1040.07 490.145 1022.61 494.986L1021.91 495.18C950.877 514.879 842.554 545.226 693.622 671.04C570.303 745.623 410.73 715.602 281.713 645.869C217.226 611.013 160.497 566.295 119.91 519.946C79.2825 473.551 55 425.722 55 384.632Z" stroke="#8FCAFF" stroke-width="3"/>
<path opacity="0.5" d="M112 319.632C112 237.045 163.074 162.081 246.053 107.694C329.019 53.3149 443.724 19.6319 570.5 19.6319C697.303 19.6319 850.469 53.3291 971.905 107.808C1032.62 135.047 1085.33 167.446 1122.83 203.358C1160.34 239.279 1182.5 278.571 1182.5 319.632C1182.5 361.086 1174.1 383.631 1157.27 398.344C1148.81 405.743 1138.13 411.245 1125.07 416.131C1112.18 420.955 1097.07 425.145 1079.61 429.986L1078.91 430.18C1007.88 449.879 899.554 480.226 750.622 606.04C627.303 680.623 467.73 650.602 338.713 580.869C274.226 546.013 217.497 501.295 176.91 454.946C136.282 408.551 112 360.722 112 319.632Z" stroke="#8FCAFF" stroke-width="3"/>
<path opacity="0.5" d="M112 319.632C112 237.045 163.074 162.081 246.053 107.694C329.019 53.3149 443.724 19.6319 570.5 19.6319C697.303 19.6319 850.469 53.3291 971.905 107.808C1032.62 135.047 1085.33 167.446 1122.83 203.358C1160.34 239.279 1182.5 278.571 1182.5 319.632C1182.5 361.086 1174.1 383.631 1157.27 398.344C1148.81 405.743 1138.13 411.245 1125.07 416.131C1112.18 420.955 1097.07 425.145 1079.61 429.986L1078.91 430.18C1007.88 449.879 899.554 480.226 750.622 606.04C627.303 680.623 467.73 650.602 338.713 580.869C274.226 546.013 217.497 501.295 176.91 454.946C136.282 408.551 112 360.722 112 319.632Z" stroke="#8FCAFF" stroke-width="3"/>
<path opacity="0.5" d="M2.00003 448.632C2.00004 366.045 53.0741 291.081 136.053 236.694C219.019 182.315 333.724 148.632 460.5 148.632C587.303 148.632 740.469 182.329 861.905 236.808C922.622 264.047 975.327 296.446 1012.83 332.358C1050.34 368.279 1072.5 407.571 1072.5 448.632C1072.5 490.086 1064.1 512.631 1047.27 527.344C1038.81 534.743 1028.13 540.245 1015.07 545.131C1002.18 549.955 987.071 554.145 969.614 558.986L968.912 559.18C897.877 578.879 789.554 609.226 640.622 735.04C517.303 809.623 357.73 779.602 228.713 709.869C164.226 675.013 107.497 630.295 66.9097 583.946C26.2825 537.551 2.00003 489.722 2.00003 448.632Z" stroke="#8FCAFF" stroke-width="3"/>
</svg>
