 <svg width="636" height="440" viewBox="0 0 636 440" fill="none" xmlns="http://www.w3.org/2000/svg">
<path opacity="0.5" d="M-493 44.6321C-493 -37.9553 -441.926 -112.919 -358.947 -167.306C-275.981 -221.685 -161.276 -255.368 -34.5001 -255.368C92.3027 -255.368 245.469 -221.671 366.905 -167.192C427.622 -139.953 480.327 -107.554 517.829 -71.6421C555.34 -35.7212 577.5 3.57144 577.5 44.632C577.5 86.0859 569.095 108.631 552.27 123.344C543.809 130.743 533.128 136.245 520.071 141.131C507.179 145.955 492.071 150.145 474.614 154.986L473.912 155.18C402.877 174.879 294.554 205.226 145.622 331.04C22.3033 405.623 -137.27 375.602 -266.287 305.869C-330.774 271.013 -387.503 226.296 -428.09 179.946C-468.718 133.551 -493 85.7222 -493 44.6321Z" stroke="#8FCAFF" stroke-width="3"/>
<path opacity="0.5" d="M-436 -20.3679C-436 -102.955 -384.926 -177.919 -301.947 -232.306C-218.981 -286.685 -104.276 -320.368 22.4999 -320.368C149.303 -320.368 302.469 -286.671 423.905 -232.192C484.622 -204.953 537.327 -172.554 574.829 -136.642C612.34 -100.721 634.5 -61.4286 634.5 -20.368C634.5 21.0859 626.095 43.6311 609.27 58.3441C600.809 65.7429 590.128 71.2448 577.071 76.1308C564.179 80.9555 549.071 85.1447 531.614 89.9858L530.912 90.1804C459.877 109.879 351.554 140.226 202.622 266.04C79.3033 340.623 -80.2704 310.602 -209.287 240.869C-273.774 206.013 -330.503 161.296 -371.09 114.946C-411.718 68.5511 -436 20.7222 -436 -20.3679Z" stroke="#8FCAFF" stroke-width="3"/>
<path opacity="0.5" d="M-436 -20.3679C-436 -102.955 -384.926 -177.919 -301.947 -232.306C-218.981 -286.685 -104.276 -320.368 22.4999 -320.368C149.303 -320.368 302.469 -286.671 423.905 -232.192C484.622 -204.953 537.327 -172.554 574.829 -136.642C612.34 -100.721 634.5 -61.4286 634.5 -20.368C634.5 21.0859 626.095 43.6311 609.27 58.3441C600.809 65.7429 590.128 71.2448 577.071 76.1308C564.179 80.9555 549.071 85.1447 531.614 89.9858L530.912 90.1804C459.877 109.879 351.554 140.226 202.622 266.04C79.3033 340.623 -80.2704 310.602 -209.287 240.869C-273.774 206.013 -330.503 161.296 -371.09 114.946C-411.718 68.5511 -436 20.7222 -436 -20.3679Z" stroke="#8FCAFF" stroke-width="3"/>
<path opacity="0.5" d="M-546 108.632C-546 26.0447 -494.926 -48.9187 -411.947 -103.306C-328.981 -157.685 -214.276 -191.368 -87.5001 -191.368C39.3027 -191.368 192.469 -157.671 313.905 -103.192C374.622 -75.9531 427.327 -43.554 464.829 -7.64205C502.34 28.2788 524.5 67.5714 524.5 108.632C524.5 150.086 516.095 172.631 499.27 187.344C490.809 194.743 480.128 200.245 467.071 205.131C454.179 209.955 439.071 214.145 421.614 218.986L420.912 219.18C349.877 238.879 241.554 269.226 92.6222 395.04C-30.6967 469.623 -190.27 439.602 -319.287 369.869C-383.774 335.013 -440.503 290.296 -481.09 243.946C-521.718 197.551 -546 149.722 -546 108.632Z" stroke="#8FCAFF" stroke-width="3"/>
</svg>
