<svg width="493" height="392" viewBox="0 0 493 392" fill="none" xmlns="http://www.w3.org/2000/svg">
<path opacity="0.5" d="M1129 395.368C1129 477.955 1077.93 552.919 994.947 607.306C911.981 661.685 797.276 695.368 670.5 695.368C543.697 695.368 390.531 661.671 269.095 607.192C208.378 579.953 155.673 547.554 118.171 511.642C80.6598 475.721 58.5 436.429 58.5 395.368C58.5 353.914 66.9045 331.369 83.7296 316.656C92.1905 309.257 102.872 303.755 115.929 298.869C128.821 294.045 143.929 289.855 161.386 285.014L162.088 284.82C233.123 265.121 341.446 234.774 490.378 108.96C613.697 34.3766 773.27 64.3979 902.287 134.131C966.774 168.987 1023.5 213.704 1064.09 260.054C1104.72 306.449 1129 354.278 1129 395.368Z" stroke="#8FCAFF" stroke-width="3"/>
<path opacity="0.5" d="M1072 460.368C1072 542.955 1020.93 617.919 937.947 672.306C854.981 726.685 740.276 760.368 613.5 760.368C486.697 760.368 333.531 726.671 212.095 672.192C151.378 644.953 98.6727 612.554 61.1709 576.642C23.6598 540.721 1.5 501.429 1.5 460.368C1.5 418.914 9.9045 396.369 26.7296 381.656C35.1905 374.257 45.8724 368.755 58.929 363.869C71.8215 359.045 86.9287 354.855 104.386 350.014L105.088 349.82C176.123 330.121 284.446 299.774 433.378 173.96C556.697 99.3766 716.27 129.398 845.287 199.131C909.774 233.987 966.503 278.704 1007.09 325.054C1047.72 371.449 1072 419.278 1072 460.368Z" stroke="#8FCAFF" stroke-width="3"/>
<path opacity="0.5" d="M1072 460.368C1072 542.955 1020.93 617.919 937.947 672.306C854.981 726.685 740.276 760.368 613.5 760.368C486.697 760.368 333.531 726.671 212.095 672.192C151.378 644.953 98.6727 612.554 61.1709 576.642C23.6598 540.721 1.5 501.429 1.5 460.368C1.5 418.914 9.9045 396.369 26.7296 381.656C35.1905 374.257 45.8724 368.755 58.929 363.869C71.8215 359.045 86.9287 354.855 104.386 350.014L105.088 349.82C176.123 330.121 284.446 299.774 433.378 173.96C556.697 99.3766 716.27 129.398 845.287 199.131C909.774 233.987 966.503 278.704 1007.09 325.054C1047.72 371.449 1072 419.278 1072 460.368Z" stroke="#8FCAFF" stroke-width="3"/>
<path opacity="0.5" d="M1182 331.368C1182 413.955 1130.93 488.919 1047.95 543.306C964.981 597.685 850.276 631.368 723.5 631.368C596.697 631.368 443.531 597.671 322.095 543.192C261.378 515.953 208.673 483.554 171.171 447.642C133.66 411.721 111.5 372.429 111.5 331.368C111.5 289.914 119.905 267.369 136.73 252.656C145.191 245.257 155.872 239.755 168.929 234.869C181.821 230.045 196.929 225.855 214.386 221.014L215.088 220.82C286.123 201.121 394.446 170.774 543.378 44.9601C666.697 -29.6234 826.27 0.397913 955.287 70.1312C1019.77 104.987 1076.5 149.704 1117.09 196.054C1157.72 242.449 1182 290.278 1182 331.368Z" stroke="#8FCAFF" stroke-width="3"/>
</svg>
