<svg width="493" height="392" viewBox="0 0 493 392" fill="none" xmlns="http://www.w3.org/2000/svg">
<path opacity="0.5" d="M-636 -3.36811C-636 -85.9554 -584.926 -160.919 -501.947 -215.306C-418.981 -269.685 -304.276 -303.368 -177.5 -303.368C-50.6971 -303.368 102.469 -269.671 223.905 -215.192C284.622 -187.953 337.327 -155.554 374.829 -119.642C412.34 -83.7212 434.5 -44.4286 434.5 -3.36801C434.5 38.0859 426.096 60.6311 409.27 75.3441C400.81 82.7429 390.128 88.2448 377.071 93.1308C364.179 97.9554 349.071 102.145 331.614 106.986L330.912 107.18C259.877 126.879 151.554 157.226 2.62226 283.04C-120.697 357.623 -280.27 327.602 -409.287 257.869C-473.774 223.013 -530.503 178.295 -571.09 131.946C-611.718 85.5509 -636 37.722 -636 -3.36811Z" stroke="#8FCAFF" stroke-width="3"/>
<path opacity="0.5" d="M-579 -68.3681C-579 -150.955 -527.926 -225.919 -444.947 -280.306C-361.981 -334.685 -247.276 -368.368 -120.5 -368.368C6.30285 -368.368 159.469 -334.671 280.905 -280.192C341.622 -252.953 394.327 -220.554 431.829 -184.642C469.34 -148.721 491.5 -109.429 491.5 -68.368C491.5 -26.9141 483.096 -4.36887 466.27 10.3441C457.81 17.7429 447.128 23.2448 434.071 28.1308C421.179 32.9554 406.071 37.1447 388.614 41.9858L387.912 42.1804C316.877 61.8793 208.554 92.2261 59.6223 218.04C-63.6967 292.623 -223.27 262.602 -352.287 192.869C-416.774 158.013 -473.503 113.295 -514.09 66.946C-554.718 20.5509 -579 -27.278 -579 -68.3681Z" stroke="#8FCAFF" stroke-width="3"/>
<path opacity="0.5" d="M-579 -68.3681C-579 -150.955 -527.926 -225.919 -444.947 -280.306C-361.981 -334.685 -247.276 -368.368 -120.5 -368.368C6.30285 -368.368 159.469 -334.671 280.905 -280.192C341.622 -252.953 394.327 -220.554 431.829 -184.642C469.34 -148.721 491.5 -109.429 491.5 -68.368C491.5 -26.9141 483.096 -4.36887 466.27 10.3441C457.81 17.7429 447.128 23.2448 434.071 28.1308C421.179 32.9554 406.071 37.1447 388.614 41.9858L387.912 42.1804C316.877 61.8793 208.554 92.2261 59.6223 218.04C-63.6967 292.623 -223.27 262.602 -352.287 192.869C-416.774 158.013 -473.503 113.295 -514.09 66.946C-554.718 20.5509 -579 -27.278 -579 -68.3681Z" stroke="#8FCAFF" stroke-width="3"/>
<path opacity="0.5" d="M-689 60.6319C-689 -21.9554 -637.926 -96.9189 -554.947 -151.306C-471.981 -205.685 -357.276 -239.368 -230.5 -239.368C-103.697 -239.368 49.4693 -205.671 170.905 -151.192C231.622 -123.953 284.327 -91.554 321.829 -55.6421C359.34 -19.7212 381.5 19.5714 381.5 60.632C381.5 102.086 373.096 124.631 356.27 139.344C347.81 146.743 337.128 152.245 324.071 157.131C311.179 161.955 296.071 166.145 278.614 170.986L277.912 171.18C206.877 190.879 98.5538 221.226 -50.3777 347.04C-173.697 421.623 -333.27 391.602 -462.287 321.869C-526.774 287.013 -583.503 242.295 -624.09 195.946C-664.718 149.551 -689 101.722 -689 60.6319Z" stroke="#8FCAFF" stroke-width="3"/>
</svg>
